<svg xmlns="http://www.w3.org/2000/svg" width="600" height="800" viewBox="0 0 600 800">
<rect width="600" height="800" fill="#FDFBF6"/>
<rect x="20" y="20" width="560" height="760" fill="none" stroke="#EADBD2" stroke-width="2" rx="14"/>
<text x="300" y="90" font-size="34" text-anchor="middle" fill="#B5392C" font-family="sans-serif" font-weight="bold">الحلويات</text>
<line x1="200" y1="112" x2="400" y2="112" stroke="#E14434" stroke-width="3"/>
<rect x="60" y="150" width="360" height="10" rx="5" fill="#D8C8BC"/>
<rect x="490" y="150" width="60" height="10" rx="5" fill="#C9503A"/>
<rect x="60" y="208" width="320" height="10" rx="5" fill="#D8C8BC"/>
<rect x="490" y="208" width="60" height="10" rx="5" fill="#C9503A"/>
<rect x="60" y="266" width="280" height="10" rx="5" fill="#D8C8BC"/>
<rect x="490" y="266" width="60" height="10" rx="5" fill="#C9503A"/>
<rect x="60" y="324" width="360" height="10" rx="5" fill="#D8C8BC"/>
<rect x="490" y="324" width="60" height="10" rx="5" fill="#C9503A"/>
<rect x="60" y="382" width="320" height="10" rx="5" fill="#D8C8BC"/>
<rect x="490" y="382" width="60" height="10" rx="5" fill="#C9503A"/>
<rect x="60" y="440" width="280" height="10" rx="5" fill="#D8C8BC"/>
<rect x="490" y="440" width="60" height="10" rx="5" fill="#C9503A"/>
<rect x="60" y="498" width="360" height="10" rx="5" fill="#D8C8BC"/>
<rect x="490" y="498" width="60" height="10" rx="5" fill="#C9503A"/>
<rect x="60" y="556" width="320" height="10" rx="5" fill="#D8C8BC"/>
<rect x="490" y="556" width="60" height="10" rx="5" fill="#C9503A"/>
<rect x="60" y="614" width="280" height="10" rx="5" fill="#D8C8BC"/>
<rect x="490" y="614" width="60" height="10" rx="5" fill="#C9503A"/>
<text x="300" y="760" font-size="14" text-anchor="middle" fill="#B7A79E" font-family="monospace">صفحة 5</text>
</svg>